<mxfile host="app.diagrams.net" modified="2023-04-06T00:29:13.593Z" agent="Mozilla/5.0 (X11; Linux x86_64) AppleWebKit/537.36 (KHTML, like Gecko) Chrome/111.0.0.0 Safari/537.36 OPR/97.0.0.0" version="21.1.4" etag="ZCEAJJBVrD7Ka7f1W5G5" type="github">
  <diagram name="Page-1" id="ehZLkgI0MylYh0Z0QpwK">
    <mxGraphModel>
      <root>
        <mxCell id="0" />
        <mxCell id="1" parent="0" />
      </root>
    </mxGraphModel>
  </diagram>
</mxfile>
